<svg xmlns="http://www.w3.org/2000/svg" width="109.889" height="77.542" viewBox="0 0 109.889 77.542"><g transform="translate(0.512 0.5)"><path d="M59.156,100.95a11.605,11.605,0,0,1-2.45-2.25c-.751-3.15.949-5.45,2-7.7-1.45.6-2.2,2-3.6,2.5a2.228,2.228,0,0,1-1.7,1.2c-.2.7-1.15.7-1.7,1.149-.2.8-1.15.9-1.7,1.35-1.6,1.15-3.15,2.25-4.9,3.351-.25,0-.55.049-.85.049a1.563,1.563,0,0,0-.65.3c-.55-.05-.75-.3-1.25-.45a4.22,4.22,0,0,1-.2-3.4,16.543,16.543,0,0,1,.7-2.45c.25-.651,1.2-1.85,1.6-2.65-.751.3-1.5,1.3-2.05,1.751-.9.3-1,1.049-1.85,1.4-1.35,1-.9,1-2.25,1.95-.8.149-1.5,1.25-2.2,1.45-.7.1-1.05.6-1.55.8-1.15.5-1.651.3-3.15.55-1.9.35-4.2-1.1-5.2-2.3a1.832,1.832,0,0,1-.185-.3,3.617,3.617,0,0,0-.766.3,6.579,6.579,0,0,1-1.9.45c-.85.851-1.949.6-2.95.95a13.929,13.929,0,0,1-4.6-.1c0-.5-1.149-.751-1.55-.9-.05-.6-.95-.35-1-.95-.45-.05-.05-1.049-.7-.95-.7-.1-.9.6-1.45.7a11.928,11.928,0,0,0-2.4,1.2c-.349.25-1.65.5-2.4,1a9.823,9.823,0,0,1-3.1.7c.1,0-1.3-.5-1.8-.25a4.584,4.584,0,0,1-1.2-4.8,5.9,5.9,0,0,0,1.2-2.65,30.406,30.406,0,0,0,1.9-2.4c1.2-1.5,2.8-2.65,4.1-4.05a6.234,6.234,0,0,0,2.15-1.949c1.25-.05,1.6-.95,2.4-1.4.95-.45,2.149-.6,2.65-1.45,2.2-.3,3.6-1.4,5.75-1.7a3.22,3.22,0,0,1,2.5,4.1c-.4.45-.7,1-1.4,1.2.1.5-.5.35-.5.7-.036.249-.327.245-.617.239a2.211,2.211,0,0,0-.333.011c-.9-1.25.65-1.8.7-2.9a2.285,2.285,0,0,0-1.862.053,3.635,3.635,0,0,1-1.738.2,14.094,14.094,0,0,1-2.4.95c-.7.4-1.1,1.049-1.9,1.2-1.35.8-2.25,2.1-3.85,2.65a27.508,27.508,0,0,1-2.15,2.65c-.6.2-.75.85-1.2,1.2s-.5,1.1-1.2,1.2c-.4,1.55-1.3,2.5-1.45,4.3,1.45.851,2.75-.4,4.1-.45,0-.45.4-.3.7-.5.3-.15.45-.3.7-.45.45-.25,1.5-.25,1.45-1a1.876,1.876,0,0,0,1.45-.25c.55-.05.45-.8,1.2-.7.2-1,.851-1.55.95-2.65.5-.55,1.2-.9,1.2-1.9,1.95-.651,2-3.15,4.8-2.9.6.25.6,1.05.95,1.451.15,1.5-1.15,1.55-1.2,2.9a5.058,5.058,0,0,0-1.651,1.9,4.249,4.249,0,0,0-1.45,1.2c-.35.35-1.3.5-.95,1.45-.25.85,1.2,1.4,1.35,1.85a1.253,1.253,0,0,1,.782,0,1.7,1.7,0,0,0,.668.047c.8-.249,1.4-.049,2.15-.45.75-.349,1.35-.149,2.1-.5,1.448-.649,1.65-.251,3.1-.9a2.844,2.844,0,0,1,0-.4c.1-1.149,1.85-3.2,2.8-3.25a10.429,10.429,0,0,0,1.249-.1c.2-.049.551-.35.7-.4.4-.1,2,.6,2,.9,0,.461-.486.778-1.067,1.011a8.076,8.076,0,0,0-.083,1.989c-.851.45-1.3.851-2.1,1.25l-.09.043a3.464,3.464,0,0,0,2.49.957c1.85,0,3.2-1.05,4.1-1.4,1.4-.7,1.6-1.35,2.8-2.15,1.949-1.5,2.9-2.2,5.05-3.95.8-.15,1.15-.851,1.65-1.35.2-.15,1.65-1.15,1.7-1.15,2.25-1.7,2.5-2.65,4.65-4.4.1-.8.9-1.05,1.2-1.6a2.7,2.7,0,0,1,2.45.55c.35.95.35,2.15-.75,2.351-.5.3-.6.9-1,1.1-.751.85-1.05.75-1.35,1.9-.55,0-.7.4-1.05.5-1.25,1.4-1.65,2.4-2.85,3.8.05.85-.75,1.3-1.2,2.049-.15.4-.35.8-.55,1.3-.25.55-.9,1-.75,2.05.11.331.252.188.457.046a.585.585,0,0,1,.643-.1c.6-.9,1.75-1.25,2.5-2.15a7.042,7.042,0,0,0,2.1-.95,22.962,22.962,0,0,0,3.15-2.1c.3-.2,1.8-.9,2.2-1.2a17.852,17.852,0,0,0,2.75-1.9c.5-.25,1.5-1.35,1.7-1.35.6-.55,1.3-.45,1.7-1.2.65-.8,1.049-.6,1.45-1.6a8.485,8.485,0,0,0,2.5-2.05,4.518,4.518,0,0,1,1.25-1.15,13.946,13.946,0,0,0,1.5-.75,2.6,2.6,0,0,1,1.85,2.05c-.55.45-.9.95-1.85.95A5.151,5.151,0,0,1,67.307,84.7c0,.5-1.7,1.65-1.95,1.849a24.491,24.491,0,0,1-2,1.9,14.577,14.577,0,0,1-1.25,1.95c-.751.35-.5,1.6-1.4,1.8a8.261,8.261,0,0,1-1.2,2.7c-.45,1,0,1.4-.3,2.4a6.214,6.214,0,0,0,1.55,1.149,13.968,13.968,0,0,0,2.4-.149,13.736,13.736,0,0,0,3.4-.6,16.411,16.411,0,0,0,3.05-.9,5,5,0,0,0,2.3-.95c1.25-.05,1.6-.65,2.3-.85.59-.221,1.261-.307,1.912-.5.927-1.617,3.425-5.06,3.988-6.654.2-.85,1.1-5.051,1.35-5.65.35-.85,1.15-.751,2.35-.55.85.8,0,5.2-.6,6.2.35.2-.1.5-.25.5.081.216.44-.05.824-.317.326-.226.669-.453.876-.383.25-.65.95-.85,1.2-1.45.55.15.75-.25,1.2-.5a11.855,11.855,0,0,0,1.9-1.2c.25-.149.5-.55.75-.7,1.15-.8,3.9-1.4,5-2.4.85-.4,2.15-1.4,3.35-.75a2.838,2.838,0,0,1-1.2,3.6c.1.95-1,.75-.95,1.7-.7.1-.55,1.05-1.2,1.2a27.633,27.633,0,0,1-3.75,6.25,7.975,7.975,0,0,1-1,1.7c-.7.1-.45,1.15-.95,1.45a1.029,1.029,0,0,0,1.083.491,3.615,3.615,0,0,1,.367.009A1.83,1.83,0,0,1,91.23,97a1.281,1.281,0,0,0,.926-.149c.65-.05.65-.3,1.2-.45,2.6-1.1,3.4-.9,5.55-2.451a5.074,5.074,0,0,0,1.8-.9,7.2,7.2,0,0,0,1.25-1.1c.4-.15,1.2-.9,1.55-1.05.95-.5,2.2-1.7,3.649-1.75.25,2.35-.3,3.3-1.049,3.35a4.3,4.3,0,0,0-1.9,1.05,22.575,22.575,0,0,1-4,2.7c-.85.3-1.05.7-2.4,1.3-.85.751-1.3.55-2.2,1.25-1.85,1.3-4.05,1.25-6.1,1.651-1.4.049-3.25.349-4.35-.8a5.209,5.209,0,0,1,.75-2.85c.05-.1-.1-.445,0-.5.008-.025.7-.95.7-.95a8.24,8.24,0,0,1,.5-.95c.05-.1.65-1.149.7-1.2a2.356,2.356,0,0,0,.5-.5c.5-.7,2.95-5,3.55-6.1a39.427,39.427,0,0,0-8.45,4.95,8.5,8.5,0,0,0-1.5,1.5c-1.1.7-2.2,3-3.25,3.75-.8.05-.55,1.2-1.3,1.35-.5.35-.9.85-1.45,1.2a2.917,2.917,0,0,0-1.082.083c-.517.122-.851.245-1.268-.332a2.379,2.379,0,0,1,.489-1.69,1.584,1.584,0,0,1-.338.09,5.1,5.1,0,0,1-2.35,1.45,37.4,37.4,0,0,1-7.6,2.05,19.113,19.113,0,0,1-2.248.144A14.078,14.078,0,0,1,59.156,100.95Zm-29.7-7.8a1.919,1.919,0,0,0-.541.3c.391-.157.795-.311,1.2-.488C29.866,93.034,29.634,93.094,29.456,93.15ZM81.58,80.96V80.03c0-3.162-1.116-3.844-1.489-6.881-2.294-2.6-3.906-7.751-6.262-8.309-.248-2.417-4.216-3.224-5.641-5.952-1.613-.124-2.047-1.363-2.976-2.108-2.294-.434-5.022-1.8-7.874-1.8a9.552,9.552,0,0,0-5.208,1.8c-1.55.992-2.108,2.976-3.286,4.153A12.24,12.24,0,0,0,48.6,62.98c0,3.1,1.674,5.456,2.913,8.122A2.909,2.909,0,0,1,53,72.59c.62,0,.868.123.868.434v.124c1.116,0,1.489.743,2.418.93.744.372,2.046,0,2.046,1.116,0,.992-1.674.372-2.046.93-1.427-.185-2.046-1.116-3.6-1.178-.062-.434-.372-.62-.93-.62h-.248c0-1.116-.806-1.3-1.8-1.488a4.2,4.2,0,0,0-1.489-2.046,4.367,4.367,0,0,0-1.488-2.108,11.8,11.8,0,0,0-1.178-4.464c.558-.868-.062-2.976.62-3.845.682-2.232,2.418-3.533,3.534-5.394,1.3-.744,2.666-1.488,3.906-2.356a16.117,16.117,0,0,1,2.975-.248c3.348,0,6.386.992,9.176,1.736a6.119,6.119,0,0,0,3.286,2.355,7.255,7.255,0,0,0,3.286,2.418c.124.992,1.116,1.054,1.488,1.8.931.124,1.736,2.418,3.287,2.976A11.08,11.08,0,0,0,79.781,67.2c.062.931,1.116.868,1.178,1.8.62.62,1.984,3.6,2.79,3.6.93,0,.31-1.551,1.116-1.8.558-2.17,1.8-3.782,2.046-6.262.93-.31.558-1.984,1.488-2.356,1.116-3.162,1.489-4.03,2.79-7.068,1.24-3.1,2.047-5.89,3.906-8.432.744-3.224,1.736-4.588,2.852-7.44-.062-.123-.124-.123-.185-.123a20.749,20.749,0,0,0-3.348,3.162c-.311.372-.248,1.116-.62,1.488-.993.311-1.674,1.3-2.543,2.48-.31.31-.93.558-1.24.868a29.624,29.624,0,0,0-2.851,3.968,25.525,25.525,0,0,0-3.225,4.34,4.542,4.542,0,0,1-1.984.558,1.539,1.539,0,0,1-1.612-1.426c0-1.364,1.8-.992,2.356-1.8,1.364-3.534,1.674-2.294,3.967-5.084,1.3-1.55,2.667-3.1,3.906-4.774,1.3-1.178,2.232-2.79,3.845-3.844-.5-.744,1.674-1.489,1.116-1.489.061,0,.619-1.363.992-1.363.743,0,2.046-2.047,2.6-2.6.062-.061,1.178-1.239,1.24-1.239a.465.465,0,0,1,.247.062c.186-1.427,1.24-1.489,3.1-4.279.744-.868,1.364-2.666,2.418-2.666a1.818,1.818,0,0,0,.31-.868c1.364,0,1.8.992,2.356,1.8a22.96,22.96,0,0,1-3.6,5.333,11.176,11.176,0,0,1-1.922,2.79c0,.806-.682,1.054-.682,1.922,0,.373-2.852,4.96-3.472,6.386a6.564,6.564,0,0,1-.62,2.356c-1.054,1.674-.62,2.666-1.984,3.968.124.743-.311,1.239-.311,1.859a30.893,30.893,0,0,1-1.8,3.472c-.682,1.3-.248,2.976-1.551,4.278a13.4,13.4,0,0,1-1.239,3.659c-.62,1.426-.931,3.224-2.047,4.153-.247,2.294-1.054,3.783-1.8,6.015-.372.992-.185,1.8-1.177,2.666,0,1.054-.868,1.859-1.178,2.666v.558c0,.868-.373.682-.373,1.612,0,.186.062.372.062.558a8.4,8.4,0,0,1-2.542.5A2.579,2.579,0,0,1,81.58,80.96Zm-72.6-2.667a3.21,3.21,0,0,1-.743-2.108,7.12,7.12,0,0,1,.434-3.844c.558-1.054,2.6-2.046,2.79-3.1,1.921-1.364,3.224-3.41,5.58-4.216.744-1.116,2.418-1.363,3.162-2.479,4.837-1.674,9.3-4.279,14.384-5.58A2.683,2.683,0,0,0,35.7,55.6c.311-.434,1.116-.31,1.116-1.116.558-.992,1.736-1.364,2.232-2.418a5.431,5.431,0,0,0-2.728,1.116c-1.178,0-1.859.868-2.852.868-.372.743-1.3.5-2.046.868-.31.186-1.426,1.116-2.108,1.116-.5,0-.558.434-.806.5-1.736.682-3.658.993-5.332,1.985-.744,0-1.3.434-1.86.434-.5,0-.93-.062-4.154.93-2.418-.123-4.96.062-6.262-1.116-.93-1.364-.744-1.054-.744-1.612,0-2.914,1.736-4.34,2.728-6.7,1.3-1.55,1.984-3.658,3.6-5.022.93-.5,1.054-1.8,2.232-1.984a8.1,8.1,0,0,1,3.6-3.163c.124-.868,2.418-2.108,2.232-1.984a7.071,7.071,0,0,0,2.418-1.984c1.178,0,3.534-2.047,4.464-2.6,1.178.186,1.985-1.488,3.162-1.488.31,0,1.055.62,1.3.868h1.24c-.124,2.047-2.976,2.914-4.216,3.534a11.974,11.974,0,0,1-2.232,1.364c-.247.248-2.108,1.55-2.108,1.55-1.116,0-1.054,1.116-2.108,1.116-.868,0-1.736,2.294-2.728,2.479a22.556,22.556,0,0,0-6.7,7.131c-.744.31-1.178,1.8-1.8,2.417a6.637,6.637,0,0,0-1.3,3.6c.931,1.426,1.674.992,2.79.992,6.449-1.364,11.284-3.658,16.679-6.138a18.676,18.676,0,0,1,2.913-1.116,12.534,12.534,0,0,1,1.551-.93c1.239-.124,3.6-1.551,4.278-1.985,3.472-2.479,3.534-1.921,4.836-3.348a11.826,11.826,0,0,1,3.224-2.232A9.685,9.685,0,0,1,52.2,39.3c.992-.434,1.3-1.426,2.232-1.984,1.178-.744,2.852-3.41,4.711-3.41,1.3,0,1.489.806,1.985,2.046-.434.311,0,.248-.558.5-1.24,2.418-4.092,3.348-5.333,5.766-.806.124-1.116.806-1.55,1.364-3.782,1.674-4.588,4.774-7.192,5.332-1.24,1.86-3.286,2.976-4.65,4.712-.247.681-1.239.681-1.363,1.55,1.674-.62,3.782-.868,5.146-1.8,2.108-.124,3.41-1.054,5.332-1.3,0,1.489-1.612,3.659-2.79,3.659a94.77,94.77,0,0,0-11.1,3.533c-2.6,1.922-3.038,4.216-5.27,5.084-.558,2.294-4.029,4.4-4.9,5.58-3.286,3.286-7.068,7.254-11.222,8.928-1.178,0-2.79.435-3.6.435A10.092,10.092,0,0,1,8.983,78.294Zm19.84-16.678a36.159,36.159,0,0,0-6.386,2.976c-.247.124-.372.5-.62.62-.31.185-.62.062-.93.247a12.32,12.32,0,0,0-1.3,1.116,4.574,4.574,0,0,1-1.612.868c-1.24.806-2.046,2.232-3.533,2.728-.682,1.363-3.721,2.79-3.721,4.96,0,1.364.992,2.356,3.1,1.674a7.953,7.953,0,0,1,2.232-.868c1.116-1.426,3.038-2.047,4.029-3.6.5-.744,1.427-1.054,1.984-1.8.868-.434,1.364-1.426,2.232-1.736a14.17,14.17,0,0,1,1.8-2.232c2.17-1.921,3.6-4.464,5.827-6.261A5.584,5.584,0,0,0,28.823,61.616Z" transform="translate(0 -24.602)" fill="#3b9182" stroke="rgba(0,0,0,0)" stroke-miterlimit="10" stroke-width="1"/></g></svg>